<?xml version="1.0" encoding="UTF-8"?>
<svg id="Layer_1" xmlns="http://www.w3.org/2000/svg" viewBox="0 0 520.0293 243.4035">
  <defs>
    <style>
      .cls-1 {
        fill: #d86c4e;
      }
    </style>
  </defs>
  <path class="cls-1" d="M0,191.7416V54.6457h33.963v18.3642c8.2991-14.8423,20.8767-22.1371,37.7294-22.1371,5.5372,0,11.071,1.006,16.6049,3.018l-3.0197,33.9597c-5.7849-1.7609-11.3188-2.7669-16.3505-2.7669-20.1234,0-33.4575,13.0814-33.4575,41.5072v65.1509H0Z"/>
  <path class="cls-1" d="M108.5219,40.3204c-7.495-7.4935-7.495-20.6642,0-27.9326,7.495-7.4935,20.6657-7.4935,28.1577,0,7.495,7.2683,7.495,20.439,0,27.9326-7.492,7.4935-20.6627,7.4935-28.1577,0Z"/>
  <rect class="cls-1" x="104.7421" y="53.7081" width="35.4696" height="137.096"/>
  <path class="cls-1" d="M288.8759,67.3162c12.8253,13.8346,19.1158,30.9401,19.1158,51.0651s-6.5415,37.2288-19.3669,51.0651c-12.8319,13.8346-28.9313,20.8783-48.3015,20.8783-16.8527,0-31.1911-6.2888-43.0154-19.1174v72.1962h-35.4696V49.9581h35.2185v16.8543c11.8243-13.5836,26.1628-20.3762,43.5176-20.3762,19.3735,0,35.4696,7.0437,48.3015,20.88h0ZM261.7055,146.5545c7.0437-7.5459,10.5655-16.8543,10.5655-27.922s-3.5218-20.3762-10.5655-27.922c-7.0437-7.5475-16.0961-11.3205-27.4182-11.3205-11.0677,0-20.1234,3.7729-27.1671,11.3205-7.0437,7.5459-10.5655,16.8543-10.5655,27.922s3.5218,20.3762,10.5655,27.922c7.0437,7.5475,16.0994,11.3205,27.1671,11.3205,11.3221,0,20.3745-3.7729,27.4182-11.3205Z"/>
  <path class="cls-1" d="M358.5398,191.1791h-35.4696V0h35.4696v191.1791Z"/>
  <path class="cls-1" d="M393.7516,67.3162c13.8363-14.0874,31.4455-21.1311,52.8277-21.1311s38.9914,7.0437,52.8244,21.1311c13.8363,13.8346,20.6256,30.9401,20.6256,51.0651,0,20.3745-6.7893,37.4816-20.6256,51.3162-13.833,13.8346-31.4422,20.8783-52.8244,20.8783s-38.9914-7.0437-52.8277-20.8783-20.6289-30.9417-20.6289-51.3162c0-20.1251,6.7926-37.2305,20.6289-51.0651ZM446.5793,157.6239c10.8166,0,19.6179-3.7746,26.9127-11.3205,7.2948-7.7986,11.0677-17.1054,11.0677-27.922s-3.7729-20.1251-11.0677-27.6709c-7.2948-7.5475-16.0961-11.3205-26.9127-11.3205s-19.8756,3.7729-27.1704,11.3205c-7.2948,7.5459-10.8166,16.8543-10.8166,27.6709s3.5218,20.1234,10.8166,27.922c7.2948,7.5459,16.3538,11.3205,27.1704,11.3205Z"/>
</svg>